<?xml version="1.0" encoding="UTF-8" standalone="no"?>
<!DOCTYPE svg PUBLIC "-//W3C//DTD SVG 1.1//EN" "http://www.w3.org/Graphics/SVG/1.1/DTD/svg11.dtd">
<svg width="100%" height="100%" viewBox="0 0 512 513" version="1.1" xmlns="http://www.w3.org/2000/svg" xmlns:xlink="http://www.w3.org/1999/xlink" xml:space="preserve" xmlns:serif="http://www.serif.com/" style="fill-rule:evenodd;clip-rule:evenodd;stroke-linecap:round;stroke-linejoin:round;stroke-miterlimit:1.5;">
    <g id="_512" serif:id="512" transform="matrix(0.946357,0,0,0.970816,16.1599,15.0554)">
        <rect x="-17.076" y="-15.13" width="541.022" height="527.392" style="fill:none;"/>
        <g transform="matrix(7.1085e-17,1.13166,-1.16091,6.92941e-17,524.725,-13.9905)">
            <path d="M465.028,117.18L465.028,350.197C465.028,414.499 412.822,466.705 348.519,466.705L115.502,466.705C51.199,466.705 -1.007,414.499 -1.007,350.197L-1.007,117.18C-1.007,52.877 51.199,0.671 115.502,0.671L348.519,0.671C412.822,0.671 465.028,52.877 465.028,117.18Z" style="fill:rgb(59,0,65);"/>
        </g>
        <g transform="matrix(7.33653e-17,1.16796,-1.19815,7.15169e-17,473.179,34.75)">
            <circle cx="89.583" cy="89.919" r="77.169" style="fill:none;stroke:white;stroke-width:3.6px;"/>
        </g>
        <g transform="matrix(7.33653e-17,1.16796,-1.19815,7.15169e-17,249.162,253.123)">
            <circle cx="89.583" cy="89.919" r="77.169" style="fill:none;stroke:white;stroke-width:3.6px;"/>
        </g>
        <g transform="matrix(7.33653e-17,1.16796,-1.19815,7.15169e-17,361.171,143.937)">
            <circle cx="89.583" cy="89.919" r="77.169" style="fill:rgb(59,0,65);stroke:white;stroke-width:3.6px;"/>
        </g>
        <g transform="matrix(4.81481e-17,0.766508,-0.786318,4.69351e-17,454.733,52.5973)">
            <path d="M0.336,0.671L510.993,511.329" style="fill:none;stroke:white;stroke-width:5.49px;"/>
        </g>
    </g>
</svg>
